# AST/ASF file generated using VICON BodyLanguage
# -----------------------------------------------
:version 1.10
:name VICON
:units
  mass 1.0
  length 0.45
  angle deg
:documentation
   .ast/.asf automatically generated from VICON data using
   VICON BodyBuilder and BodyLanguage model FoxedUp or BRILLIANT.MOD
:root
   order TX TY TZ RX RY RZ
   axis XYZ
   position 0 0 0  
   orientation 0 0 0 
:bonedata
  begin
     id 1 
     name lhipjoint
     direction 0.643272 -0.706573 0.294883 
     length 2.58915 
     axis 0 0 0  XYZ
  end
  begin
     id 2 
     name lfemur
     direction 0.34202 -0.939693 0  
     length 7.06802  
     axis 0 0 20  XYZ
    dof rx ry rz
    limits (-160.0 20.0)
           (-70.0 70.0)
           (-60.0 70.0)
  end
  begin
     id 3 
     name ltibia
     direction 0.34202 -0.939693 0   
     length 7.94147   
     axis 0 0 20   XYZ
    dof rx
    limits (-10.0 170.0)
  end
  begin
     id 4 
     name lfoot
     direction 0.0435058 -0.119531 0.991877   
     length 1.8399   
     axis -90 7.62852e-016 20   XYZ
    dof rx rz
    limits (-45.0 90.0)
           (-70.0 20.0)
  end
  begin
     id 5 
     name ltoes
     direction 1.53505e-011 -4.22157e-011 1   
     length 0.934412   
     axis -90 7.62852e-016 20   XYZ
    dof rx
    limits (-90.0 20.0)
  end
  begin
     id 6 
     name rhipjoint
     direction -0.636801 -0.711547 0.296959   
     length 2.57105  
     axis 0 0 0  XYZ 
  end
  begin
     id 7 
     name rfemur
     direction -0.34202 -0.939693 0   
     length 7.03285   
     axis 0 0 -20   XYZ
    dof rx ry rz
    limits (-160.0 20.0)
           (-70.0 70.0)
           (-70.0 60.0)
  end
  begin
     id 8 
     name rtibia
     direction -0.34202 -0.939693 0   
     length 7.99111   
     axis 0 0 -20   XYZ
    dof rx
    limits (-10.0 170.0)
 end
 begin
     id 9 
     name rfoot
     direction -0.0783088 -0.215152 0.973436   
     length 1.98785  
     axis -90 -7.62852e-016 -20   XYZ
    dof rx rz
    limits (-45.0 90.0)
           (-20.0 70.0)
  end
  begin
     id 10 
     name rtoes
     direction -1.53606e-011 -4.21943e-011 1   
     length 1.001   
     axis -90 -7.62852e-016 -20   XYZ
    dof rx
    limits (-90.0 20.0)
  end
  begin
     id 11 
     name lowerback
     direction 0.00141527 0.998403 -0.0564763   
     length 2.30486   
     axis 0 0 0   XYZ
    dof rx ry rz
    limits (-20.0 45.0)
           (-30.0 30.0)
           (-30.0 30.0)
  end
  begin
     id 12 
     name upperback
     direction 0.0125137 0.999915 0.00361315   
     length 2.30697   
     axis 0 0 0   XYZ
    dof rx ry rz
    limits (-20.0 45.0)
           (-30.0 30.0)
           (-30.0 30.0)
  end
  begin
     id 13 
     name thorax
     direction 0.0136417 0.999471 0.0295116   
     length 2.31005   
     axis 0 0 0   XYZ
    dof rx ry rz
    limits (-20.0 45.0)
           (-30.0 30.0)
           (-30.0 30.0)
  end
  begin
     id 14 
     name lowerneck
     direction 0.0766806 0.997047 0.00422047   
     length 1.68825   
     axis 0 0 0   XYZ
    dof rx ry rz
    limits (-20.0 45.0)
           (-30.0 30.0)
           (-30.0 30.0)
  end
  begin
     id 15 
     name upperneck
     direction -0.143512 0.985106 -0.0947088   
     length 1.69772   
     axis 0 0 0   XYZ
    dof rx ry rz
    limits (-20.0 45.0)
           (-30.0 30.0)
           (-30.0 30.0)
  end
  begin
     id 16
     name head
     direction -0.0539128 0.997849 -0.0372864  
     length 1.71187  
     axis 0 0 0   XYZ
    dof rx ry rz
    limits (-20.0 45.0)
           (-30.0 30.0)
           (-30.0 30.0)
  end
  begin
     id 17 
     name lclavicle
     direction 0.978251 0.207416 -0.00165765  
     length 3.35399  
     axis 0 0 0   XYZ
    dof ry rz
    limits (-20.0 10.0)
           (0.0 20.0)
  end
  begin
     id 18 
     name lhumerus
     direction 1 -4.48966e-011 -1.32191e-028   
     length 5.70706   
     axis 180 -30 -90   XYZ
    dof rx ry rz
    limits (-60.0 90.0)
           (-90.0 90.0)
           (-90.0 90.0)
  end
  begin
     id 19
     name lradius
     direction 1 -4.48976e-011 9.36106e-027   
     length 3.33243   
     axis 180 -30 -90   XYZ
    dof rx
    limits (-10.0 170.0)
  end
  begin
     id 20
     name lwrist
     direction 1 -4.48976e-011 1.1555e-026   
     length 1.66621   
     axis -5.7412e-015 90 90   XYZ
    dof ry
    limits (-180.0 0.0)
 end
  begin
     id 21 
     name lhand
     direction 1 -4.48939e-011 2.31113e-026   
     length 0.792687   
     axis -1.47463e-014 90 90   XYZ
    dof rx rz
    limits (-90.0 90.0)
           (-45.0 45.0)
  end
  begin
     id 22 
     name lfingers
     direction 1 -4.48866e-011 4.62274e-026   
     length 0.639085   
     axis -2.94925e-014 90 90   XYZ
    dof rx
    limits (0.0 90.0)
  end
  begin
     id 23
     name lthumb
     direction 0.707107 -6.34847e-011 0.707107   
     length 0.917601   
     axis -90 45 -6.68868e-015   XYZ
    dof rx rz
    limits (-45.0 45.0)
           (-45.0 45.0)
  end
  begin
     id 24 
     name rclavicle
     direction -0.981813 0.185514 0.0403428   
     length 3.47271  
     axis 0 0 0   XYZ 
    dof ry rz
    limits (-10.0 20.0)
           (-20.0 0.0)
  end
  begin
     id 25 
     name rhumerus
     direction -1 -4.48972e-011 -6.58544e-029  
     length 5.88176   
     axis 180 30 90   XYZ
    dof rx ry rz
    limits (-90.0 60.0)
           (-90.0 90.0)
           (-90.0 90.0)
  end
  begin
     id 26 
     name rradius
     direction -1 -4.48964e-011 8.36306e-027   
     length 3.28156   
     axis 180 30 90   XYZ
    dof rx
    limits (-10.0 170.0)
  end
  begin
     id 27 
     name rwrist
     direction -1 -4.48903e-011 1.15562e-026   
     length 1.64078   
     axis -5.7412e-015 -90 -90   XYZ
    dof ry
    limits (-180.0 0.0)
  end
  begin
     id 28
     name rhand
     direction -1 -4.49055e-011 2.31074e-026   
     length 0.863125   
     axis -1.47463e-014 -90 -90   XYZ
    dof rx rz
    limits (-90.0 90.0)
           (-45.0 45.0)
  end
  begin
     id 29
     name rfingers
     direction -1 -4.48994e-011 4.62188e-026   
     length 0.695873   
     axis -2.94925e-014 -90 -90   XYZ
    dof rx
    limits (0.0 90.0)
  end
  begin
     id 30
     name rthumb
     direction -0.707107 -6.35058e-011 0.707107   
     length 0.999139   
     axis -90 -45 6.68868e-015   XYZ
    dof rx rz
    limits (-45.0 45.0)
           (-45.0 45.0)
  end
:hierarchy
  begin
    root lhipjoint rhipjoint lowerback
    lhipjoint lfemur
    lfemur ltibia
    ltibia lfoot
    lfoot ltoes
    rhipjoint rfemur
    rfemur rtibia
    rtibia rfoot
    rfoot rtoes
    lowerback upperback
    upperback thorax
    thorax lowerneck lclavicle rclavicle
    lowerneck upperneck
    upperneck head
    lclavicle lhumerus
    lhumerus lradius
    lradius lwrist
    lwrist lhand lthumb
    lhand lfingers
    rclavicle rhumerus
    rhumerus rradius
    rradius rwrist
    rwrist rhand rthumb
    rhand rfingers
  end

#!OML:ASF \\Waltz\H\Terrain\Patient Classification 1\Animal2\Wednesday\Animal2.ASF
:FULLY-SPECIFIED
:DEGREES
1
root 2.9604 17.2554 -27.07 2.51125 -3.13644 -5.95572
lowerback 3.85054 1.07078 4.92185
upperback -2.62546 1.81169 1.92999
thorax -4.79782 0.768859 -0.899345
lowerneck 6.14691 4.66753 15.774
upperneck -14.424 5.47061 -20.6113
head -4.09104 3.20137 -9.56936
rclavicle 4.77549e-015 -2.50966e-014
rhumerus -2.98307 25.8157 -80.0164
rradius 89.6846
rwrist -22.0499
rhand -17.0119 10.8984
rfingers 7.12502
rthumb 9.22384 -18.8798
lclavicle 4.77549e-015 -2.50966e-014
lhumerus 15.8898 18.4965 6.75836
lradius 72.0976
lwrist -3.2077
lhand -49.6373 12.4562
lfingers 7.12502
lthumb -22.2409 41.1965
rfemur -4.27689 -1.89834 29.9089
rtibia 26.7605
rfoot -24.2862 7.1073
rtoes 35.6682
lfemur -20.4413 -1.07232 -13.9895
ltibia 43.2823
lfoot -23.0896 3.36516
ltoes -24.2879
2
root 2.97405 17.2523 -27.0365 2.27192 -2.40749 -5.28753
lowerback 3.85019 0.783609 4.48941
upperback -2.58593 1.39275 1.74773
thorax -4.78045 0.573279 -0.814942
lowerneck 7.01202 4.81438 15.0101
upperneck -15.2734 5.66835 -20.0014
head -4.51091 3.34277 -9.30446
rclavicle 2.5081e-015 4.67144e-015
rhumerus -3.12827 26.2376 -80.0551
rradius 89.7806
rwrist -22.2824
rhand -17.0756 10.6779
rfingers 7.12502
rthumb 9.16241 -19.103
lclavicle 2.5081e-015 4.67144e-015
lhumerus 15.5841 18.2189 6.88934
lradius 72.4265
lwrist -2.27916
lhand -49.5719 12.5148
lfingers 7.12502
lthumb -22.1781 41.2626
rfemur -4.49907 -1.49343 29.3506
rtibia 27.7431
rfoot -25.2002 5.33628
rtoes 33.3504
lfemur -19.9642 -1.5387 -14.7869
ltibia 42.8619
lfoot -23.3117 3.08187
ltoes -24.5418
3
root 2.98627 17.2438 -27.0006 2.15886 -1.70222 -4.84656
lowerback 3.69218 0.545812 4.33226
upperback -2.53853 1.04579 1.54898
thorax -4.65498 0.405958 -0.904266
lowerneck 6.80325 4.76511 14.9979
upperneck -14.9946 5.59449 -20.0637
head -4.40313 3.30058 -9.29898
rclavicle 1.04222e-014 -1.5704e-014
rhumerus -3.41308 26.4827 -80.2458
rradius 89.9063
rwrist -22.1228
rhand -16.9744 10.2056
rfingers 7.12502
rthumb 9.26 -19.571
lclavicle 1.04222e-014 -1.5704e-014
lhumerus 15.4736 18.0044 6.98389
lradius 72.743
lwrist -1.01268
lhand -49.1944 12.5984
lfingers 7.12502
lthumb -21.8157 41.3888
rfemur -4.95495 -0.939297 29.0635
rtibia 29.0228
rfoot -25.9515 3.80982
rtoes 32.0344
lfemur -19.6662 -1.95686 -15.299
ltibia 42.4529
lfoot -23.3086 2.54737
ltoes -23.5508
4
root 2.99828 17.2361 -26.9936 2.24264 -1.29193 -4.62826
lowerback 3.72877 0.497607 4.39808
upperback -2.63343 0.981975 1.33743
thorax -4.77349 0.365016 -1.15601
lowerneck 5.88364 4.46997 15.8431
upperneck -13.8432 5.19971 -20.9196
head -3.91276 3.0668 -9.64982
rclavicle 8.46233e-015 -2.8948e-015
rhumerus -3.88094 26.2684 -80.5288
rradius 90.0272
rwrist -21.6705
rhand -16.7112 9.78474
rfingers 7.12502
rthumb 9.51404 -19.9805
lclavicle 8.46233e-015 -2.8948e-015
lhumerus 15.7655 17.8204 7.34547
lradius 73.079
lwrist 0.74769
lhand -48.3497 12.2871
lfingers 7.12502
lthumb -21.0043 41.1697
rfemur -5.75582 -0.00596506 29.0237
rtibia 30.4045
rfoot -26.3641 2.76598
rtoes 32.0831
lfemur -19.6999 -2.03364 -15.5247
ltibia 41.9785
lfoot -22.9848 2.1688
ltoes -23.3575
5
root 3.01255 17.2356 -26.9701 2.10869 -0.716837 -3.2685
lowerback 3.66169 0.455219 3.36257
upperback -2.50846 0.834221 0.788963
thorax -4.61377 0.320217 -1.13234
lowerneck 5.58167 4.32077 16.1226
upperneck -13.653 4.98345 -21.1264
head -3.8291 2.94328 -9.75214
rclavicle -1.25646e-014 -6.01324e-015
rhumerus -4.07837 25.9646 -80.6303
rradius 90.1911
rwrist -22.1903
rhand -16.858 9.62521
rfingers 7.12502
rthumb 9.37239 -20.1464
lclavicle -1.25646e-014 -6.01324e-015
lhumerus 16.2345 17.7767 7.83677
lradius 73.5812
lwrist 2.9584
lhand -47.5943 12.4131
lfingers 7.12502
lthumb -20.2785 41.3745
rfemur -6.31163 0.290043 27.6018
rtibia 31.935
rfoot -26.8888 2.05565
rtoes 31.5939
lfemur -19.328 -2.24272 -17.0982
ltibia 41.4347
lfoot -22.7535 1.9338
ltoes -24.0996
6
root 3.02773 17.2306 -26.9478 2.11675 -0.140888 -1.99099
lowerback 3.55276 0.363245 2.47358
upperback -2.41706 0.632309 0.241567
thorax -4.46575 0.241688 -1.18392
lowerneck 5.90909 4.40925 15.6268
upperneck -14.2104 5.10631 -20.4403
head -4.07034 3.00741 -9.46256
rclavicle -5.96354e-016 1.08338e-014
rhumerus -4.24945 25.8821 -80.7467
rradius 90.3609
rwrist -22.8931
rhand -16.7695 9.56344
rfingers 7.12502
rthumb 9.45776 -20.2043
lclavicle -5.96354e-016 1.08338e-014
lhumerus 16.5616 17.6809 8.21786
lradius 74.1779
lwrist 5.05693
lhand -47.4421 14.1317
lfingers 7.12502
lthumb -20.1323 43.1086
rfemur -7.09714 0.395913 26.244
rtibia 33.5905
rfoot -27.2456 1.44607
rtoes 31.1282
lfemur -19.1017 -2.36751 -18.5688
ltibia 40.9287
lfoot -22.4577 1.43085
ltoes -24.2778
